<?xml version="1.0" encoding="UTF-8"?>
<svg id="Layer_2" data-name="Layer 2" xmlns="http://www.w3.org/2000/svg" viewBox="0 0 156.78 162.89">
  <defs>
    <style>
      .cls-1 {
        fill: #fff;
      }

      .cls-2 {
        fill: #e2d3f4;
        font-family: CenturyGothic-Bold, 'Century Gothic';
        font-size: 29px;
        font-weight: 700;
      }

      .cls-3 {
        fill: #2f445c;
      }
    </style>
  </defs>
  <g id="Layer_4" data-name="Layer 4">
    <g>
      <g>
        <path class="cls-1" d="m154.86,62.45c-1.29,1.37-3.04,2.15-4.92,2.21-.07,0-.14,0-.21,0-1.2,0-2.36-.31-3.39-.87l-12.15,5.27.4,14-7.12,7.54,9.23,43.11s-5.36,7.08-5.42,7.08c0,0-4.27-2.56-6.59-4.19-9.12-6.39-16.82-11.91-18.75-14.78-1.96-2.91-3.89-6.17-5.76-9.73-.41.21-.81.41-1.21.61l-.06.02-2.72,1.24,5.1,5.61-.42,8.69,8.68,9.55-6.65,13.67c1.12,2.38.6,5.28-1.45,7.14-1.13,1.03-2.6,1.6-4.13,1.6-1.73,0-3.38-.73-4.55-2.01-2.28-2.51-2.09-6.4.42-8.68.87-.79,1.94-1.31,3.09-1.51l4.24-8.72-7.65-8.43.42-8.69-4.96-5.47c-.99.27-2.28.63-3.53.96l1.53,1.6-.18,8.69,8.93,9.31-6.28,13.85c1.18,2.35.74,5.26-1.25,7.17-1.15,1.11-2.66,1.71-4.25,1.71s-3.28-.69-4.43-1.89c-2.35-2.44-2.27-6.34.18-8.68.86-.82,1.91-1.37,3.05-1.6l4-8.83-7.88-8.21.18-8.69-2.94-3.06-3.13-.18c-.86-.02-1.59-.14-2.24-.25-.41-.07-.8-.13-1.2-.17h-.07s-.67-.09-.67-.09l-3.18,6.67,2.9,8.2-4.91,10.27,6.57,7.13c.25-.03.5-.05.75-.05.92,0,1.81.2,2.64.6,3.05,1.46,4.35,5.13,2.9,8.19-1.02,2.13-3.19,3.5-5.54,3.5-.92,0-1.81-.2-2.65-.6-2.49-1.19-3.82-3.81-3.44-6.42l-10.31-11.18,5.56-11.64-2.9-8.2,3.77-7.89c-.23-.07-.47-.13-.71-.21-2.37-.69-4.34-1.25-5.67-1.66l-4.17,5.66,1.3,8.6-6.76,9.16,5.11,8.24c1.17.08,2.27.48,3.23,1.18,1.32.97,2.18,2.4,2.43,4.03.25,1.62-.16,3.24-1.13,4.57-1.15,1.56-3,2.5-4.94,2.5-1.32,0-2.58-.41-3.64-1.2-2.22-1.64-3.03-4.47-2.16-6.95l-8.01-12.93,7.66-10.38-1.3-8.6,5.12-6.94-1.21-.65c-2.83,2.74-5.62,5.18-8.32,7.29-2.72,2.13-11.76,4.98-22.41,8.22-2.71.83-8.18,2.22-8.18,2.22,0,0-2.5-6.63-2.88-7.68l14.38-31.54-4.49-9.51,4.73-13.19-9.91-8.78c-.43.08-.87.12-1.31.12-.81,0-1.61-.14-2.38-.42-1.77-.64-3.19-1.92-3.99-3.63-.8-1.7-.9-3.62-.26-5.39,1-2.79,3.67-4.67,6.63-4.67.81,0,1.61.14,2.38.41,2.47.89,4.22,3.06,4.6,5.59l15.84,14.03-5.4,15.07,4.67,9.9-11.7,25.74c7.63-2.32,12.06-3.94,13.19-4.83,3.61-2.82,6.94-6,9.11-8.17,1.75-1.92,4.87-5.59,6.35-8.89l3.02-10.34.06.07-.02-.19-.03.12-.45-.57c-1.51-1.4-2.14-4.19-1.87-8.3.15-6.31,1.99-16.05,5.09-27-2.9-2.76-5.85-5.98-7.11-10.66l-.19-.72.26-.7c2.47-6.5,8.91-13.79,19.68-22.28.13-.32.29-.69.45-1.08,2.52-6.1,5.12-11.58,9.29-11.65h.06c3.71,0,6.45,4.79,9.68,12.53.03.08.07.16.1.23,7.86,6.08,14.75,12.03,19.57,22.07l.29.61-.08.67c-.54,4.39-3.83,7.61-6.73,10.45-.16.15-.31.31-.46.45,3.12,11,4.97,20.8,5.11,27.12.03,1.72-.08,5.89-1.58,7.93l-1.17,1.56,6.59,15.95.18-.08.95,2.13c.03.07,3.41,7.61,7.92,14.33.98,1.47,6.13,5.24,10.38,8.23l-8.21-37.22,7.63-8.07-.46-16.01,19.41-8.42c1.15-2.29,3.48-3.81,6.11-3.89.07,0,.13,0,.2,0,3.84,0,6.93,3.01,7.04,6.85.05,1.88-.63,3.67-1.92,5.04Z"/>
        <circle class="cls-3" cx="92.72" cy="90.85" r="4.94"/>
        <circle class="cls-3" cx="58.47" cy="90.85" r="4.94"/>
        <path class="cls-3" d="m54.73,45.58c-3.25,11.06-5.49,21.84-5.64,28.7-.12,1.79-.14,5.33,1.13,6.51.12.01.67,0,1.66-.5,5.98-2.99,14.17-4.26,22.4-4.26s16.43,1.28,22.4,4.26c.99.49,1.54.51,1.66.5,1.04-1.41,1.15-5.11,1.13-6.51-.15-6.86-2.39-17.65-5.64-28.7-3.25-11.06-7.5-22.49-11.53-31.02-1.04-2.36-4.73-12.21-8.02-12.16-3.63.06-6.76,9.51-8.02,12.16h0c-4.02,8.53-8.28,19.96-11.53,31.02Z"/>
        <path class="cls-3" d="m101.57,35.92c-4.8-10.02-11.76-15.75-19.45-21.67,4.77,11.43,8.7,22.02,11.65,32.5,2.94-3.09,7.26-6.42,7.8-10.84Z"/>
        <path class="cls-3" d="m54.79,46.76c3.32-11.04,7.32-22.85,11.66-32.53-7.41,5.79-16.52,13.96-19.46,21.69,1.27,4.71,4.53,7.8,7.8,10.84Z"/>
        <path class="cls-3" d="m149.59,52.96c-2.08.06-3.81,1.44-4.4,3.33l-18.84,8.17.44,15.4-7.44,7.88,9.21,41.76c-6.04-4.14-14.25-9.86-15.8-12.17-4.69-6.97-8.11-14.68-8.11-14.68l-.09.04-2.87-5.74c-2.07,3.01-5.61,4.95-9.56,4.74-5.4-.29-9.82-4.61-10.24-9.99-.27-3.45,1.11-6.61,3.43-8.78-3.43-.63-7.24-.97-11.03-.97-2.99,0-5.99.22-8.8.61,2.36,2,3.86,4.98,3.86,8.28,0,5.97-4.9,10.87-10.87,10.87-4.75,0-8.82-3.11-10.28-7.38-1.48,3.3-4.41,6.94-6.79,9.54-2.27,2.29-5.67,5.51-9.36,8.4-2.2,1.72-11.77,4.61-18.8,6.66l13.35-29.37-4.63-9.8,5.2-14.51-15.37-13.62c.02-1.97-1.19-3.83-3.15-4.53-2.47-.88-5.18.4-6.07,2.87-.88,2.46.4,5.19,2.86,6.07,1.18.43,2.42.35,3.49-.11l12.03,10.66-4.93,13.76,4.55,9.63-14.82,31.15.07.03c.16.26,2.01,5.55,2.02,5.56,3.94-1.44,24.27-6.99,27.84-9.78,3.67-2.87,6.97-5.96,9.34-8.31.08.05.17.1.26.15l2.78,1.49c.62.31,1.31.64,2.06.98l-6.19,8.4,1.3,8.6-7.3,9.9,7.86,12.68c-1.15,1.7-.76,4.01.91,5.23,1.71,1.26,4.11.89,5.37-.81,1.26-1.7.89-4.11-.81-5.37-.93-.68-2.06-.89-3.1-.66l-6.65-10.73,7.12-9.65-1.3-8.6,5.72-7.76c1.15.45,9.18,2.7,10.5,3.12l-4.52,9.47,2.9,8.2-5.3,11.1,10.11,10.97c-.81,1.89.02,4.08,1.88,4.97,1.92.92,4.21.1,5.12-1.81.91-1.91.1-4.21-1.81-5.12-1.04-.5-2.19-.48-3.17-.06l-8.56-9.28,5.17-10.82-2.9-8.2,4.08-8.55s.2-.47.2-.47l2.33.27c1.17.1,2.11.38,3.33.41l3.85.23s.45.23.53.33l3.92,4.09-.18,8.69,8.3,8.65-5.21,11.5c-1.06-.09-2.15.26-2.99,1.06-1.53,1.47-1.58,3.9-.11,5.43s3.9,1.58,5.43.11c1.49-1.43,1.58-3.77.22-5.31l6.15-13.59-8.51-8.87.18-8.7-3.6-3.75c1.21-.27,7.42-1.95,8.66-2.32l6.57,7.23-.42,8.69,8.06,8.87-5.53,11.35c-1.06-.12-2.16.2-3.01.97-1.57,1.42-1.68,3.85-.26,5.42,1.42,1.57,3.85,1.69,5.42.26,1.53-1.39,1.68-3.73.37-5.3l6.53-13.41-8.27-9.1.42-8.69-6.68-7.36c.91-.33,1.82-.69,2.75-1.08l2.95-1.35c1.06-.52,2.13-1.08,3.2-1.69,1.53,3.04,3.86,7.37,6.7,11.59,2.53,3.77,20.13,15.36,23.43,17.95.01,0,3.41-4.46,3.65-4.66h.07s-10.05-43.92-10.05-43.92l7.31-7.75-.42-14.61,14.75-6.39c.87.77,2.02,1.22,3.28,1.19,2.62-.07,4.68-2.26,4.61-4.88-.07-2.62-2.25-4.68-4.88-4.61Z"/>
      </g>
      <text class="cls-2" transform="translate(62.29 65.89)"><tspan x="0" y="0">G</tspan></text>
    </g>
  </g>
</svg>