<?xml version="1.0" encoding="UTF-8"?>
<svg id="Layer_2" data-name="Layer 2" xmlns="http://www.w3.org/2000/svg" viewBox="0 0 218 226.75">
  <defs>
    <style>
      .cls-1 {
        fill: #fff;
      }
    </style>
  </defs>
  <g id="Layer_2-2" data-name="Layer 2">
    <g>
      <circle class="cls-1" cx="129.54" cy="126.71" r="7.08"/>
      <circle class="cls-1" cx="80.48" cy="126.71" r="7.08"/>
      <path class="cls-1" d="m75.12,61.86c-4.66,15.84-7.87,31.29-8.08,41.12-.17,2.56-.2,7.64,1.62,9.33.17.02.96-.01,2.38-.72,8.56-4.28,20.3-6.11,32.09-6.11s23.53,1.83,32.09,6.11c1.41.71,2.21.74,2.38.72,1.49-2.02,1.65-7.33,1.62-9.33-.22-9.83-3.42-25.28-8.08-41.12-4.66-15.84-10.75-32.22-16.51-44.44C113.12,14.03,107.83-.07,103.12,0c-5.2.08-9.69,13.62-11.49,17.42h0c-5.77,12.22-11.86,28.6-16.51,44.44Z"/>
      <path class="cls-1" d="m142.22,48.02c-6.88-14.35-16.85-22.57-27.86-31.04,6.83,16.37,12.46,31.54,16.69,46.57,4.22-4.42,10.39-9.2,11.18-15.53Z"/>
      <path class="cls-1" d="m75.2,63.55c4.75-15.82,10.49-32.74,16.7-46.6-10.61,8.3-23.67,19.99-27.88,31.08,1.81,6.75,6.49,11.17,11.18,15.53Z"/>
      <path class="cls-1" d="m211.01,72.44c-2.98.08-5.45,2.07-6.3,4.77l-26.99,11.7.63,22.07-10.66,11.29,13.19,59.83c-8.66-5.93-20.41-14.12-22.64-17.44-6.71-9.99-11.62-21.02-11.62-21.02l-.13.06-4.11-8.22c-2.97,4.32-8.04,7.09-13.7,6.79-7.74-.42-14.06-6.6-14.67-14.32-.39-4.94,1.59-9.47,4.91-12.58-4.91-.9-10.37-1.39-15.81-1.39-4.29,0-8.58.31-12.61.88,3.38,2.87,5.53,7.13,5.53,11.86,0,8.55-7.02,15.57-15.57,15.57-6.8,0-12.64-4.45-14.73-10.57-2.12,4.72-6.32,9.94-9.72,13.66-3.26,3.27-8.12,7.9-13.41,12.03-3.15,2.46-16.87,6.6-26.94,9.55l19.12-42.07-6.63-14.04,7.45-20.78-22.02-19.51c.04-2.83-1.7-5.48-4.51-6.49-3.54-1.27-7.42.58-8.69,4.1-1.27,3.53.57,7.43,4.1,8.7,1.7.61,3.47.5,4.99-.16l17.24,15.27-7.07,19.71,6.51,13.8-21.23,44.63.1.04c.23.37,2.88,7.95,2.89,7.96,5.64-2.06,34.77-10.01,39.89-14.01,5.26-4.11,9.98-8.54,13.38-11.91.12.07.24.14.38.21l3.99,2.14c.89.44,1.87.91,2.95,1.4l-8.87,12.03,1.86,12.32-10.46,14.18,11.25,18.16c-1.64,2.43-1.08,5.74,1.3,7.5,2.45,1.81,5.89,1.28,7.69-1.16,1.8-2.44,1.28-5.89-1.16-7.69-1.33-.98-2.94-1.27-4.44-.95l-9.53-15.37,10.19-13.83-1.86-12.32,8.2-11.12c1.64.64,13.14,3.87,15.05,4.47l-6.48,13.57,4.15,11.75-7.59,15.9,14.48,15.71c-1.15,2.7.02,5.84,2.69,7.12,2.75,1.31,6.03.15,7.33-2.59,1.31-2.74.14-6.03-2.59-7.33-1.49-.71-3.14-.69-4.54-.09l-12.26-13.3,7.4-15.5-4.15-11.74,5.85-12.25s.29-.67.29-.67l3.33.39c1.67.15,3.02.55,4.77.58l5.51.32s.65.32.76.47l5.62,5.86-.26,12.45,11.9,12.39-7.46,16.47c-1.52-.13-3.09.37-4.28,1.51-2.19,2.1-2.26,5.59-.16,7.78s5.58,2.27,7.78.16c2.13-2.05,2.26-5.4.32-7.6l8.82-19.46-12.2-12.71.25-12.46-5.15-5.37c1.74-.39,10.63-2.79,12.41-3.32l9.41,10.35-.6,12.44,11.55,12.71-7.92,16.26c-1.51-.17-3.09.29-4.32,1.39-2.25,2.04-2.41,5.52-.37,7.77,2.04,2.24,5.51,2.42,7.77.37,2.19-1.99,2.41-5.34.53-7.59l9.35-19.21-11.84-13.04.6-12.44-9.57-10.54c1.3-.47,2.61-.99,3.93-1.55l4.22-1.93c1.52-.75,3.05-1.55,4.58-2.42,2.19,4.35,5.53,10.56,9.6,16.61,3.62,5.4,28.84,22,33.56,25.71.02,0,4.89-6.39,5.22-6.67h.11s-14.4-62.92-14.4-62.92l10.48-11.1-.6-20.93,21.13-9.16c1.25,1.1,2.9,1.75,4.69,1.7,3.75-.11,6.71-3.24,6.6-6.99-.11-3.75-3.23-6.71-6.99-6.6Z"/>
    </g>
  </g>
</svg>