<?xml version="1.0" encoding="UTF-8"?>
<svg id="Layer_2" data-name="Layer 2" xmlns="http://www.w3.org/2000/svg" viewBox="0 0 626 650.37">
  <defs>
    <style>
      .cls-1 {
        fill: #fff;
      }
    </style>
  </defs>
  <g id="Layer_2-2" data-name="Layer 2">
    <g>
      <path class="cls-1" d="m618.31,249.36c-5.17,5.47-12.14,8.6-19.65,8.82-.27,0-.54.02-.82.02-4.78,0-9.43-1.22-13.54-3.49l-48.51,21.03,1.59,55.9-28.45,30.13,36.85,172.14s-21.39,28.26-21.63,28.26c0,0-17.06-10.23-26.33-16.73-36.4-25.51-67.16-47.56-74.85-59-7.81-11.61-15.52-24.65-23-38.86-1.62.84-3.23,1.65-4.84,2.45l-.22.1-10.85,4.97,20.34,22.4-1.66,34.69,34.64,38.14-26.57,54.59c4.45,9.51,2.38,21.1-5.77,28.5-4.52,4.11-10.38,6.37-16.48,6.37-6.89,0-13.51-2.93-18.15-8.03-9.1-10.02-8.35-25.56,1.66-34.65,3.49-3.17,7.77-5.24,12.33-6.03l16.95-34.81-30.56-33.64,1.66-34.68-19.82-21.82c-3.94,1.09-9.12,2.5-14.1,3.83l6.11,6.38-.71,34.72,35.67,37.17-25.06,55.31c4.71,9.38,2.96,21.01-4.97,28.62-4.59,4.42-10.62,6.84-16.98,6.84s-13.1-2.74-17.7-7.54c-9.37-9.75-9.05-25.31.71-34.67,3.42-3.28,7.63-5.47,12.18-6.37l15.97-35.26-31.48-32.79.71-34.71-11.74-12.23-12.49-.74c-3.44-.08-6.36-.57-8.95-.99-1.65-.28-3.2-.53-4.78-.67l-.26-.03-2.68-.31-12.72,26.63,11.57,32.73-19.59,41.03,26.24,28.45c.99-.12,1.99-.18,3-.18,3.67,0,7.22.8,10.56,2.4,12.2,5.83,17.39,20.5,11.57,32.7-4.05,8.49-12.74,13.97-22.14,13.97-3.68,0-7.24-.81-10.57-2.41-9.93-4.74-15.24-15.23-13.72-25.62l-41.16-44.64,22.21-46.49-11.58-32.74,15.05-31.51c-.92-.26-1.88-.54-2.85-.82-9.47-2.74-17.32-5.01-22.66-6.64l-16.66,22.6,5.19,34.33-26.98,36.59,20.4,32.91c4.65.31,9.08,1.93,12.88,4.73,5.27,3.89,8.72,9.6,9.7,16.07.98,6.48-.62,12.95-4.51,18.23-4.6,6.24-11.98,9.97-19.74,9.97-5.27,0-10.29-1.66-14.55-4.79-8.85-6.53-12.09-17.84-8.63-27.75l-31.99-51.61,30.58-41.46-5.18-34.33,20.43-27.7-4.83-2.59c-11.29,10.92-22.44,20.7-33.21,29.11-10.85,8.49-46.94,19.89-89.46,32.83-10.82,3.3-32.65,8.88-32.65,8.88,0,0-9.97-26.48-11.5-30.66l57.43-125.94-17.92-37.97,18.88-52.65-39.56-35.04c-1.72.32-3.47.49-5.24.49-3.23,0-6.44-.56-9.51-1.66-7.07-2.54-12.72-7.68-15.94-14.48-3.21-6.81-3.58-14.45-1.04-21.52,3.99-11.15,14.64-18.64,26.48-18.64,3.23,0,6.42.55,9.49,1.65,9.87,3.54,16.83,12.2,18.35,22.33l63.24,56.03-21.58,60.19,18.66,39.55-46.7,102.76c30.47-9.28,48.16-15.74,52.68-19.27,14.43-11.27,27.73-23.94,36.39-32.64,6.99-7.66,19.45-22.31,25.36-35.5l12.05-41.29.22.28-.08-.74-.14.46-1.79-2.26c-6.03-5.58-8.55-16.73-7.47-33.15.6-25.19,7.94-64.09,20.31-107.8-11.57-11.01-23.36-23.86-28.39-42.57l-.77-2.87,1.05-2.78c9.85-25.94,35.56-55.05,78.56-88.96.54-1.28,1.14-2.74,1.79-4.32C269.45,22.14,279.85.26,296.48,0h.24c14.79,0,25.76,19.14,38.65,50.03.13.32.26.63.39.93,31.4,24.26,58.9,48.02,78.13,88.11l1.17,2.43-.34,2.68c-2.17,17.55-15.28,30.39-26.85,41.73-.63.61-1.25,1.22-1.86,1.82,12.44,43.94,19.83,83.05,20.39,108.29.11,6.85-.31,23.51-6.31,31.66l-4.65,6.24,26.3,63.68.72-.34,3.79,8.52c.13.3,13.61,30.39,31.63,57.2,3.93,5.86,24.48,20.93,41.43,32.85l-32.77-148.62,30.45-32.24-1.82-63.92,77.51-33.61c4.59-9.15,13.9-15.22,24.38-15.52.27,0,.54,0,.8,0,15.33,0,27.69,12,28.12,27.34.21,7.5-2.51,14.66-7.68,20.12Z"/>
      <circle cx="370.21" cy="362.74" r="19.72"/>
      <circle cx="233.47" cy="362.74" r="19.72"/>
      <path d="m218.52,182c-12.99,44.15-21.92,87.21-22.53,114.6-.48,7.14-.56,21.28,4.52,25.99.47.06,2.68-.03,6.62-2,23.86-11.93,56.57-17.03,89.44-17.03s65.58,5.1,89.44,17.03c3.94,1.97,6.16,2.06,6.62,2,4.15-5.64,4.61-20.42,4.52-25.99-.61-27.39-9.55-70.45-22.53-114.6-12.99-44.15-29.96-89.79-46.03-123.86-4.15-9.44-18.9-48.76-32.03-48.56-14.51.22-27,37.95-32.03,48.56h0c-16.07,34.07-33.04,79.71-46.03,123.86Z"/>
      <path d="m405.55,143.43c-19.18-39.99-46.96-62.89-77.66-86.51,19.05,45.63,34.73,87.92,46.51,129.78,11.75-12.32,28.97-25.65,31.15-43.27Z"/>
      <path d="m218.76,186.71c13.24-44.08,29.25-91.24,46.56-129.89-29.58,23.13-65.97,55.72-77.71,86.62,5.05,18.82,18.1,31.14,31.15,43.27Z"/>
      <path d="m597.28,211.48c-8.3.23-15.2,5.77-17.55,13.28l-75.22,32.61,1.75,61.5-29.72,31.47,36.76,166.75c-24.13-16.52-56.88-39.36-63.1-48.61-18.71-27.83-32.4-58.59-32.4-58.59l-.35.16-11.45-22.9c-8.27,12.04-22.41,19.77-38.17,18.91-21.56-1.17-39.19-18.39-40.88-39.91-1.08-13.77,4.43-26.39,13.68-35.05-13.69-2.5-28.89-3.87-44.05-3.87-11.95,0-23.9.86-35.14,2.44,9.41,7.99,15.42,19.87,15.42,33.07,0,23.82-19.57,43.39-43.39,43.39-18.96,0-35.22-12.4-41.06-29.47-5.91,13.17-17.61,27.71-27.1,38.08-9.08,9.13-22.63,22.01-37.39,33.54-8.78,6.86-47.01,18.4-75.08,26.6l53.3-117.26-18.47-39.14,20.77-57.92-61.37-54.37c.1-7.88-4.74-15.28-12.56-18.08-9.87-3.53-20.69,1.61-24.22,11.44-3.53,9.84,1.6,20.71,11.43,24.24,4.73,1.7,9.66,1.4,13.92-.44l48.05,42.55-19.7,54.93,18.16,38.47-59.17,124.38.28.11c.64,1.02,8.02,22.17,8.06,22.19,15.73-5.74,96.9-27.9,111.17-39.05,14.67-11.47,27.82-23.79,37.3-33.19.33.19.68.39,1.05.6l11.12,5.96c2.48,1.23,5.21,2.55,8.21,3.91l-24.73,33.54,5.19,34.33-29.14,39.52,31.37,50.62c-4.58,6.79-3.02,16,3.61,20.89,6.83,5.04,16.41,3.57,21.43-3.24,5.02-6.8,3.57-16.41-3.24-21.43-3.71-2.73-8.21-3.55-12.36-2.65l-26.56-42.84,28.41-38.53-5.19-34.33,22.85-30.99c4.57,1.79,36.64,10.79,41.94,12.46l-18.06,37.82,11.58,32.74-21.16,44.31,40.37,43.78c-3.22,7.53.06,16.28,7.49,19.84,7.66,3.66,16.8.41,20.44-7.22,3.64-7.64.4-16.8-7.23-20.44-4.16-1.99-8.74-1.93-12.64-.25l-34.18-37.06,20.63-43.21-11.58-32.73,16.3-34.13c-.1-.07.8-1.88.8-1.88l9.29,1.08c4.65.41,8.41,1.54,13.3,1.63l15.36.9s1.81.9,2.11,1.31l15.67,16.33-.71,34.71,33.16,34.54-20.8,45.92c-4.24-.36-8.6,1.03-11.93,4.22-6.1,5.86-6.3,15.57-.44,21.67s15.55,6.32,21.67.44c5.94-5.7,6.31-15.04.89-21.18l24.57-54.25-34-35.42.7-34.72-14.36-14.97c4.84-1.08,29.63-7.78,34.59-9.25l26.22,28.85-1.66,34.68,32.19,35.43-22.07,45.33c-4.22-.48-8.62.8-12.03,3.89-6.26,5.68-6.72,15.39-1.04,21.65,5.68,6.25,15.36,6.74,21.64,1.04,6.1-5.54,6.72-14.88,1.47-21.16l26.05-53.54-33.01-36.35,1.66-34.68-26.69-29.38c3.63-1.32,7.28-2.77,10.96-4.33l11.77-5.39c4.24-2.08,8.49-4.32,12.78-6.74,6.11,12.14,15.42,29.43,26.75,46.3,10.1,15.04,80.37,61.32,93.54,71.65.05,0,13.63-17.81,14.56-18.59h.3s-40.13-175.36-40.13-175.36l29.21-30.92-1.66-58.32,58.89-25.53c3.47,3.07,8.07,4.89,13.09,4.74,10.45-.3,18.7-9.04,18.4-19.48-.3-10.45-8.99-18.7-19.47-18.4Z"/>
    </g>
  </g>
</svg>